<svg width="37" height="38" viewBox="0 0 37 38" fill="none" xmlns="http://www.w3.org/2000/svg">
<rect x="0.242188" y="0.796143" width="36.4078" height="36.4078" rx="18.2039" fill="#8D75F5"/>
<path d="M27.3192 20.63C27.3192 21.9181 27.0614 23.0264 26.5734 23.8356C25.947 24.8751 24.9733 25.425 23.7579 25.425C21.4381 25.425 19.8785 22.5147 18.2279 19.4338C17.0286 17.1958 15.5402 14.4109 14.3164 14.4109C13.7267 14.4109 13.0039 15.1276 12.4302 16.281C11.7741 17.6379 11.4257 19.1229 11.4099 20.63C11.4099 21.5708 11.5812 22.3724 11.8918 22.8879C12.1801 23.3667 12.5756 23.5893 13.1354 23.5893C14.1871 23.5893 15.4782 21.3712 15.9027 20.6453C16.0254 20.435 16.2265 20.2819 16.462 20.2199C16.6975 20.1579 16.9479 20.1919 17.1583 20.3145C17.3686 20.4371 17.5217 20.6383 17.5837 20.8738C17.6457 21.1092 17.6117 21.3597 17.4891 21.5701C16.8076 22.7388 16.2248 23.5587 15.6534 24.1538C14.8327 25.0089 14.0105 25.425 13.1354 25.425C11.9201 25.425 10.9464 24.8751 10.32 23.8356C9.83198 23.0264 9.57422 21.9181 9.57422 20.63C9.57422 17.2669 11.3778 12.5752 14.3164 12.5752C16.6363 12.5752 18.1958 15.4855 19.8464 18.5664C21.0473 20.8044 22.5365 23.5893 23.7579 23.5893C24.3178 23.5893 24.7133 23.3667 25.0016 22.8879C25.3122 22.3724 25.4835 21.5708 25.4835 20.63C25.468 19.123 25.1198 17.6379 24.4639 16.281C23.8903 15.1276 23.1675 14.4109 22.577 14.4109C22.1395 14.4109 21.6125 14.7933 21.0098 15.5452C20.8576 15.7353 20.6362 15.8571 20.3942 15.8839C20.1522 15.9108 19.9095 15.8404 19.7194 15.6882C19.5294 15.5361 19.4075 15.3147 19.3807 15.0727C19.3539 14.8307 19.4243 14.588 19.5764 14.3979C20.5593 13.1718 21.5406 12.5752 22.577 12.5752C23.927 12.5752 25.1775 13.6009 26.1069 15.4633C26.8864 17.0753 27.3004 18.8396 27.3192 20.63Z" fill="white"/>
</svg>
